<?xml version="1.0" encoding="utf-8"?>
<!-- Generator: Adobe Illustrator 19.2.1, SVG Export Plug-In . SVG Version: 6.00 Build 0)  -->
<svg version="1.1" id="Layer_1" xmlns="http://www.w3.org/2000/svg" xmlns:xlink="http://www.w3.org/1999/xlink" x="0px" y="0px"
	 viewBox="0 0 66.2 62.8" style="enable-background:new 0 0 66.2 62.8;" xml:space="preserve">
<style type="text/css">
	.st0{display:none;fill-rule:evenodd;clip-rule:evenodd;}
	.st1{fill:#424242;stroke:#424242;stroke-width:0.3919;stroke-linecap:square;stroke-linejoin:round;}
	.st2{fill:#0277BD;stroke:#424242;stroke-width:0.3919;stroke-linecap:square;stroke-linejoin:round;}
	.st3{fill:#00BCD4;stroke:#424242;stroke-width:0.3002;stroke-linecap:square;stroke-linejoin:round;}
	.st4{fill:#FFFF00;stroke:#424242;stroke-width:0.3002;stroke-linecap:square;stroke-linejoin:round;}
	.st5{fill:#424242;stroke:#424242;stroke-width:0.3919;stroke-linecap:square;}
	.st6{fill:#424242;stroke:#424242;stroke-width:0.3933;stroke-linecap:square;stroke-linejoin:round;}
	.st7{fill:#0277BD;stroke:#424242;stroke-width:0.3933;stroke-linecap:square;stroke-linejoin:round;}
	.st8{fill:#00BCD4;stroke:#424242;stroke-width:0.3012;stroke-linecap:square;stroke-linejoin:round;}
	.st9{fill:#FFFF00;stroke:#424242;stroke-width:0.3012;stroke-linecap:square;stroke-linejoin:round;}
</style>
<g>
	<path class="st0" d="M62.1,16.7c0,1.2-0.3,2-0.3,3.1c-0.7,0.9-1.3,1-1.7,1.9c-1.1,2.5-0.7,5.4-1.6,7.7c-1,2.6-3.7,4.9-7.2,5.3
		c-7.7,0.9-12.7-2.4-14.9-7.8c-0.7-1.8-1.3-6.3-4.5-5.3c-1.1,0.3-2.1,4-2.7,5.2c-0.9,2-1.7,3.8-2.8,4.9c-2.5,2.5-9.1,4.4-14.1,2.7
		c-2.2-0.8-4.3-2.8-5.2-4.7c-1.2-2.8-0.4-8.3-3.4-9.7c0.1-1.2-0.2-2-0.2-3.1c6.3-1.3,13.9-1.7,20.4-0.3c3,0.6,5.8,2.3,9.2,2
		c2.2-0.1,4.4-1.1,6.6-1.7C46.5,14.9,54.1,15.5,62.1,16.7z M9,19.2c-2.8,3-0.8,10.1,1.9,12.5c3.2,2.8,10.1,2.2,13.3-0.3
		c1.8-1.4,4.4-6,3.8-9.7c-0.8-4.7-8.3-4.8-14.3-4.2C11.3,17.7,10.1,18.1,9,19.2z M37.7,21.7c-0.6,3.2,1.2,6.6,2.2,8
		c2.7,3.8,10.7,5.3,14.7,2c2.6-2.1,4.2-7,3.1-10.7c-1.2-4-6.8-4-12.5-3.5C41.2,17.9,38.2,18.8,37.7,21.7z M4.9,18.6
		c0.9,0.3,2.6,0.2,3-0.5C7.1,17.9,5.1,17.6,4.9,18.6z M57.9,18.1c-0.2,0.7,2,0.8,2.8,0.5C60.6,17.7,58.6,17.9,57.9,18.1z"/>
	<g id="right_eye">
		<g>
			<polygon class="st1" points="34.9,2.8 30.5,3 6.7,33.9 			"/>
			<polygon class="st2" points="63.3,6.8 34.3,25.2 54.7,20.5 10.8,54.4 25.3,30.6 7.2,33.7 34.9,2.8 			"/>
			<polygon class="st3" points="57.3,8.2 31.7,26.3 48.9,23.1 16.4,47.7 27.3,29.6 11.2,31.7 35.2,5.1 			"/>
			<polygon class="st4" points="50.6,10.1 28.6,27.7 43.6,24.9 20.9,43 31.3,28.1 16,29.7 35.5,8.1 			"/>
			<polygon class="st5" points="20.5,31.7 25.3,30.5 10.8,54.2 			"/>
		</g>
	</g>
	<g id="lefteye">
		<g>
			<polygon class="st6" points="34.9,2.5 30.5,2.8 7.2,33.7 			"/>
			<polygon class="st7" points="63.3,6.7 34.3,25 54.6,20.4 10.8,54.6 25.3,30.6 7.2,33.7 34.9,2.6 			"/>
			<polygon class="st8" points="57.3,8.1 31.7,26.3 48.9,23.1 16.4,47.8 27.3,29.6 11.2,31.8 35.2,5 			"/>
			<polygon class="st9" points="50.6,9.9 28.6,27.7 43.6,24.9 20.9,43.1 31.3,28.1 16,29.7 35.5,8 			"/>
			<polygon class="st6" points="20.5,31.7 25.3,30.5 10.8,54.4 			"/>
		</g>
	</g>
</g>
</svg>
