<?xml version="1.0" encoding="utf-8"?>
<!-- Generator: Adobe Illustrator 19.2.1, SVG Export Plug-In . SVG Version: 6.00 Build 0)  -->
<svg version="1.1" id="Layer_1" xmlns="http://www.w3.org/2000/svg" xmlns:xlink="http://www.w3.org/1999/xlink" x="0px" y="0px"
	 viewBox="0 0 72 72" style="enable-background:new 0 0 72 72;" xml:space="preserve">
<style type="text/css">
	.st0{fill:#9E9E9E;stroke:#616161;stroke-width:0.3938;stroke-linecap:square;stroke-linejoin:round;}
	.st1{fill:#E0E0E0;stroke:#616161;stroke-width:0.3016;stroke-linecap:square;stroke-linejoin:round;}
	.st2{fill:#F5F5F5;stroke:#616161;stroke-width:0.3016;stroke-linecap:square;stroke-linejoin:round;}
	.st3{fill:#616161;stroke:#616161;stroke-width:0.3938;stroke-linecap:square;stroke-linejoin:round;}
	.st4{fill-rule:evenodd;clip-rule:evenodd;}
	.st5{clip-path:url(#SVGID_2_);}
	.st6{fill:#212121;stroke:#212121;stroke-width:0.3919;stroke-linecap:square;stroke-linejoin:round;}
	.st7{fill:#039BE5;stroke:#212121;stroke-width:0.3919;stroke-linecap:square;stroke-linejoin:round;}
	.st8{fill:#F40091;stroke:#212121;stroke-width:0.3002;stroke-linecap:square;stroke-linejoin:round;}
	.st9{fill:#FFFF00;stroke:#212121;stroke-width:0.3002;stroke-linecap:square;stroke-linejoin:round;}
	.st10{fill:#212121;stroke:#212121;stroke-width:0.3919;stroke-linecap:square;}
	.st11{clip-path:url(#SVGID_4_);}
	.st12{fill:#212121;stroke:#212121;stroke-width:0.3933;stroke-linecap:square;stroke-linejoin:round;}
	.st13{fill:#039BE5;stroke:#212121;stroke-width:0.3933;stroke-linecap:square;stroke-linejoin:round;}
	.st14{fill:#F40091;stroke:#212121;stroke-width:0.3012;stroke-linecap:square;stroke-linejoin:round;}
	.st15{fill:#FFFF00;stroke:#212121;stroke-width:0.3012;stroke-linecap:square;stroke-linejoin:round;}
	.st16{display:none;}
	.st17{display:inline;fill:#231F20;}
	.st18{font-family:'Impact';}
	.st19{font-size:14.6542px;}
</style>
<g>
	<g id="black_and_white">
		<g>
			<polygon class="st0" points="64.2,8.8 35.1,27.2 55.4,22.5 11.6,56.8 26.1,32.7 8.1,35.6 35.7,4.7 			"/>
			<polygon class="st1" points="58.2,10.2 32.6,28.4 49.7,25.2 17.2,50 28.1,31.7 12.1,33.9 36,7.1 			"/>
			<polygon class="st2" points="51.4,12 29.5,29.8 44.4,27 21.8,45.3 32.2,30.2 16.8,31.8 36.3,10.1 			"/>
			<polygon class="st3" points="35.9,4.6 31.5,4.9 8.2,35.6 			"/>
			<polygon class="st3" points="21.4,33.8 26.1,32.6 11.6,56.5 			"/>
		</g>
	</g>
	<path class="st4" d="M63,18.7c0,1.2-0.3,2-0.3,3.1c-0.7,0.9-1.3,1-1.7,1.9c-1.1,2.5-0.7,5.4-1.6,7.7c-1,2.6-3.7,4.9-7.2,5.3
		c-7.7,0.9-12.7-2.4-14.9-7.8c-0.7-1.8-1.3-6.3-4.5-5.3c-1.1,0.3-2.1,4-2.7,5.2c-0.9,2-1.7,3.8-2.8,4.9c-2.5,2.5-9.1,4.4-14.1,2.7
		C11,35.5,8.9,33.5,8,31.5c-1.2-2.8-0.4-8.3-3.4-9.7c0.1-1.2-0.2-2-0.2-3.1c6.3-1.3,13.9-1.7,20.4-0.3c3,0.6,5.8,2.3,9.2,2
		c2.2-0.1,4.4-1.1,6.6-1.7C47.4,16.9,55,17.5,63,18.7z M9.9,21.2c-2.8,3-0.8,10.1,1.9,12.5c3.2,2.8,10.1,2.2,13.3-0.3
		c1.8-1.4,4.4-6,3.8-9.7c-0.8-4.7-8.3-4.8-14.3-4.2C12.1,19.7,10.9,20.1,9.9,21.2z M38.5,23.7c-0.6,3.2,1.2,6.6,2.2,8
		c2.7,3.8,10.7,5.3,14.7,2c2.6-2.1,4.2-7,3.1-10.7c-1.2-4-6.8-4-12.5-3.5C42.1,19.9,39.1,20.8,38.5,23.7z M5.8,20.6
		c0.9,0.3,2.6,0.2,3-0.5C8,19.9,6,19.6,5.8,20.6z M58.7,20.1c-0.2,0.7,2,0.8,2.8,0.5C61.5,19.7,59.5,19.9,58.7,20.1z"/>
	<g id="right_eye">
		<defs>
			<path id="SVGID_1_" d="M38.5,23.8c-0.5,3.3,1.2,6.5,2.2,7.9c2.7,3.8,10.6,5.3,14.7,2c2.6-2.1,4.2-7,3.1-10.6
				c-1.2-4-6.9-4.1-12.6-3.6C42,19.9,39,20.8,38.5,23.8z"/>
		</defs>
		<clipPath id="SVGID_2_">
			<use xlink:href="#SVGID_1_"  style="overflow:visible;"/>
		</clipPath>
		<g class="st5">
			<polygon class="st6" points="35.8,4.8 31.4,5 7.6,35.9 			"/>
			<polygon class="st7" points="64.2,8.8 35.1,27.2 55.6,22.5 11.7,56.4 26.2,32.6 8,35.7 35.8,4.8 			"/>
			<polygon class="st8" points="58.2,10.2 32.6,28.3 49.8,25.1 17.2,49.7 28.1,31.6 12.1,33.7 36.1,7.1 			"/>
			<polygon class="st9" points="51.5,12.1 29.5,29.7 44.5,26.9 21.8,45 32.2,30.1 16.9,31.7 36.4,10.1 			"/>
			<polygon class="st10" points="21.4,33.7 26.2,32.5 11.6,56.2 			"/>
		</g>
	</g>
	<g id="lefteye">
		<defs>
			<path id="SVGID_3_" d="M9.8,21.2c-2.8,3-0.8,10.1,1.9,12.4c3.2,2.8,10.2,2.3,13.4-0.2c1.8-1.4,4.5-6,3.8-9.7
				c-0.8-4.7-8.4-5-14.3-4.2C12.1,19.8,10.9,20.1,9.8,21.2z"/>
		</defs>
		<clipPath id="SVGID_4_">
			<use xlink:href="#SVGID_3_"  style="overflow:visible;"/>
		</clipPath>
		<g class="st11">
			<polygon class="st12" points="35.8,4.5 31.4,4.8 8.1,35.7 			"/>
			<polygon class="st13" points="64.2,8.7 35.2,27 55.5,22.4 11.7,56.6 26.2,32.6 8,35.7 35.8,4.6 			"/>
			<polygon class="st14" points="58.2,10.1 32.6,28.3 49.8,25.1 17.2,49.8 28.1,31.6 12.1,33.8 36.1,7 			"/>
			<polygon class="st15" points="51.5,11.9 29.5,29.7 44.5,26.9 21.8,45.1 32.2,30.1 16.9,31.7 36.4,10 			"/>
			<polygon class="st12" points="21.4,33.7 26.2,32.5 11.6,56.4 			"/>
		</g>
	</g>
</g>
<text transform="matrix(1 0 0 1 33.3135 53.6094)" class="st16"><tspan x="0" y="0" class="st17 st18 st19">A11Y </tspan><tspan x="-8.9" y="13.2" class="st17 st18 st19">ROCKS!</tspan></text>
</svg>
